<?xml version="1.0" standalone="no"?>
<!DOCTYPE svg PUBLIC "-//W3C//DTD SVG 20010904//EN"
 "http://www.w3.org/TR/2001/REC-SVG-20010904/DTD/svg10.dtd">
<svg version="1.0" xmlns="http://www.w3.org/2000/svg"
 width="150.000000pt" height="129.000000pt" viewBox="0 0 150.000000 129.000000"
 preserveAspectRatio="xMidYMid meet">
<metadata>
Created by potrace 1.16, written by Peter Selinger 2001-2019
</metadata>
<g transform="translate(0.000000,129.000000) scale(0.100000,-0.100000)"
fill="#000000" stroke="none">
<path d="M0 645 l0 -645 750 0 750 0 0 645 0 645 -750 0 -750 0 0 -645z m1040
270 l0 -295 -265 0 -265 0 0 240 c0 147 4 240 10 240 5 0 52 -17 105 -37 92
-36 95 -38 96 -70 2 -54 3 -58 17 -57 43 3 42 2 42 87 l0 82 48 21 c132 60
188 83 200 84 9 0 12 -66 12 -295z m-72 -427 c16 -16 15 -55 -1 -65 -10 -6 -9
-12 5 -25 14 -14 18 -15 18 -4 0 19 17 24 61 16 19 -4 45 -3 57 1 26 10 70 -5
78 -26 3 -8 9 -13 13 -11 3 2 6 -33 6 -79 l0 -82 -40 1 c-39 1 -40 2 -43 41
-7 103 -34 115 -42 19 l-5 -59 -92 -2 -92 -2 -3 95 c-2 73 0 98 11 103 10 6
10 9 -4 14 -17 7 -14 38 7 65 13 15 50 16 66 0z m-218 -57 c0 -19 4 -22 21
-18 64 17 113 -46 107 -136 -3 -59 -10 -67 -55 -67 l-32 0 -3 62 c-2 48 -7 63
-18 63 -11 0 -16 -16 -20 -60 -4 -54 -7 -60 -29 -63 -12 -2 -33 -1 -46 2 -20
5 -23 11 -19 38 4 31 4 32 -11 13 -8 -11 -14 -24 -11 -30 2 -6 -4 -12 -13 -13
-99 -13 -111 -13 -111 -2 0 7 -7 10 -17 6 -10 -4 -14 -4 -10 0 4 4 0 15 -9 25
-20 23 -23 88 -5 122 26 49 132 51 167 2 27 -36 18 -47 -36 -43 -35 2 -51 -1
-55 -10 -7 -19 4 -34 18 -25 15 10 35 10 69 1 l27 -6 0 80 c0 44 3 84 8 88 13
13 67 16 75 5 4 -5 8 -21 8 -34z m-463 24 c6 -2 13 -14 16 -27 3 -16 4 -13 3
7 -1 29 0 30 44 30 l45 0 1 -122 c0 -104 -2 -123 -15 -127 -35 -9 -251 -6
-251 4 -1 6 -1 60 -1 120 0 61 0 114 1 118 0 7 132 5 157 -3z m1101 -71 c12
-14 22 -33 23 -42 5 -81 -24 -121 -95 -132 -25 -4 -43 -3 -40 2 3 4 1 8 -4 8
-5 0 -21 12 -36 26 -29 29 -35 79 -15 117 31 59 122 70 167 21z m-1186 -233
c-11 -6 -10 -10 5 -16 25 -10 137 -6 141 6 5 12 32 12 32 0 0 -11 70 -20 76
-9 3 4 16 3 29 -2 16 -6 25 -6 25 0 0 5 7 7 15 4 9 -4 15 -1 15 7 0 8 4 7 13
-4 11 -15 15 -15 39 -3 14 8 30 10 35 6 4 -5 19 -10 33 -12 19 -2 25 -9 25
-28 0 -24 -3 -25 -72 -28 -64 -3 -73 -1 -74 15 -1 17 -2 17 -6 1 -3 -14 -15
-18 -49 -18 -24 0 -44 -4 -44 -10 0 -14 -57 -13 -62 1 -2 7 -39 11 -93 12 -66
2 -89 5 -87 15 3 17 -15 15 -22 -3 -3 -8 -10 -15 -15 -15 -12 0 -20 56 -9 72
4 7 8 9 8 5 0 -4 8 -3 18 2 21 12 43 14 24 2z m542 -9 c7 -12 74 -13 81 -2 6
10 44 -6 56 -23 3 -5 9 2 12 14 6 21 8 22 24 7 12 -10 25 -13 38 -8 27 10 35
4 35 -31 0 -28 -1 -29 -45 -27 -25 0 -45 6 -45 12 0 6 -4 6 -8 -2 -9 -14 -52
-25 -52 -13 0 4 -13 6 -30 3 -24 -3 -30 -1 -31 14 0 15 -2 15 -6 4 -8 -21 -22
-28 -44 -23 -14 4 -19 13 -17 37 1 17 3 34 5 39 5 10 21 9 27 -1z m306 -15 c0
13 38 6 59 -11 11 -8 15 -8 18 2 3 6 15 12 27 12 12 0 27 5 33 11 8 8 18 6 37
-6 24 -16 26 -16 26 -1 0 9 7 16 16 16 8 0 13 -4 10 -9 -8 -12 55 -19 88 -10
22 6 27 4 32 -16 9 -35 -2 -45 -47 -45 -30 0 -39 4 -40 18 -1 16 -2 16 -6 0
-4 -14 -17 -17 -88 -16 -61 0 -85 4 -89 14 -7 17 -27 18 -23 2 1 -9 -12 -13
-43 -13 -39 0 -45 3 -48 23 -2 13 -1 31 3 40 6 15 8 15 21 -2 8 -11 14 -15 14
-9z"/>
</g>
</svg>
